<?xml version="1.0" standalone="yes"?>
<svg xmlns="http://www.w3.org/2000/svg" width="227" height="85">
<path style="fill:#010101; stroke:none;" d="M0 0L0 85L227 85L227 0L0 0z"/>
<path style="fill:#ffffff; stroke:none;" d="M10 10L10 73C12.8547 72.2964 17.1721 72.2452 19.3966 70.142C23.5033 66.2592 21.465 49.9562 20 45L33 44L33 45C17.773 45.0017 22 57.8451 22 70L23 70L23 46L34 45L34 33L23 32L23 21L37 21L37 56L38.7423 68.9722L56 69L56 68L39 69L39 68L66 66L66 67L57 67L57 68C66.0138 67.994 68.9732 66.3529 69 57L68 57L68 65L67 65L68 54L53 55L53 43L65 42L65 41C53.986 43.6222 52 42.5383 52 55L51 55L50 42L64 40L64 33L50 32L50 31L65 32L65 31L51 30L50 19L69 20C69 16.5587 75.1214 18 78 18L78 51L76 66L82 67L82 66L78 66L78 65L90 64L90 65L83 65L83 66L91 65C85.6567 52.3898 89 33.5866 89 20L99 20L99 63L100 63L100 10L68 10L68 18L67 18L67 10L39 10L39 68L38 68L37 10L10 10M101 10L101 63L113 65L114 40L115 40L115 49L116 49L116 47L117 47L118 60L119 60L119 57L120 57C118.983 66.9451 126.84 67.4118 135 65L135 64C130.336 65.1105 124.993 66.025 121 63L133 64L134 10L122 10L123 33L122 33L119 20L120 20L120 23L121 23L120 18L119 20L118 20L118 11L117 11L117 14C113.292 8.55788 106.956 10 101 10M138 10C138 27.396 141.032 48.0636 137 65L144 66L144 65L138 65L138 64L163.397 64.9329L165.985 51L166 10L165 10L165 54L159 54L159 55L165 55L165 56L149 55L149 54L158 54L158 53L152 53L152 47L151 47L151 53L150 53L150 10L138 10M167 10L167 51L165.397 65.2539L145 66L145 67L170 68L170 67L167 67L167 66L179 67L179 68L171 68L171 69L181 69C174.614 53.9291 177.876 26.3343 179 10L167 10M180 10L180 65L181 65L182 60L183 60L181 67C185.335 68.3171 191.236 70.2633 193 65L194 65L194 68L195 68L200 56L200 48L202 60L201 60L201 57L200 57L201 63L202 63L202 60L203 60L204 67L203 67L203 64L202 64C203.359 73.0182 208.872 73.9674 217 75L217 74L205 70L217 73L214 57L215 57L215 60L216 60L213 48L212 48L212 51L211 51C209.364 39.9195 209.448 35.0315 212 24L214 26L217 16L216 16L216 18L215 18L217 10C210.113 10 205.839 9.44147 204 17L203 15L202 15L203 20L202 20L202 18L201 18L202 23L201 23L199 18L198 20L197 20L198 15L197 15L197 17L196 17L197 12L196 12L196 14L195 14L196 10L180 10M204 10L205 11L204 10M136 11L136 63L137 63L137 28L136 11z"/>
<path style="fill:#010101; stroke:none;" d="M182 12L181 60L182 60L182 57L183 57L183 60L184 60C188.788 42.4576 194.425 28.6094 182 12z"/>
<path style="fill:#ffffff; stroke:none;" d="M203.333 12.6667L203.667 13.3333L203.333 12.6667z"/>
<path style="fill:#010101; stroke:none;" d="M117 14L117 17L118 17L117 14z"/>
<path style="fill:#ffffff; stroke:none;" d="M182.333 15.6667L182.667 16.3333L182.333 15.6667z"/>
<path style="fill:#010101; stroke:none;" d="M36 18L20 19L20 20L36 18M66 18L67 19L66 18M89 18L89 19L99 19L89 18z"/>
<path style="fill:#ffffff; stroke:none;" d="M183 18L185 25L186 25L183 18z"/>
<path style="fill:#010101; stroke:none;" d="M214 18L213 24L214 24L214 18z"/>
<path style="fill:#ffffff; stroke:none;" d="M71 19L71 20L77 20L71 19M52 20L52 21L63 21L52 20z"/>
<path style="fill:#010101; stroke:none;" d="M198 20L199 28L200 28L198 20M21 21L20 35L33 34L33 33L22 33L21 21z"/>
<path style="fill:#ffffff; stroke:none;" d="M121 25L122 26L121 25M186.333 26.6667L186.667 27.3333L186.333 26.6667M212.333 27.6667L212.667 28.3333L212.333 27.6667M187 29L189 40L190 40L187 29z"/>
<path style="fill:#010101; stroke:none;" d="M111 30L112 63L113 63C113 53.2825 116.176 38.4747 111 30z"/>
<path style="fill:#ffffff; stroke:none;" d="M211.333 30.6667L211.667 31.3333L211.333 30.6667M210.333 33.6667L210.667 34.3333L210.333 33.6667M209 36L209 41L210 41L209 36M65 37L65 40L66 40L65 37M188 41L186 48L187 48L188 41M210.333 42.6667L210.667 43.3333L210.333 42.6667M151 43L152 44L151 43M211.333 45.6667L211.667 46.3333L211.333 45.6667M185 49L183 57L184 57L185 49M116.333 51.6667L116.667 52.3333L116.333 51.6667z"/>
<path style="fill:#010101; stroke:none;" d="M212 51L213 57L214 57L212 51M197 53L194 65L195 65L197 53z"/>
<path style="fill:#ffffff; stroke:none;" d="M117.333 54.6667L117.667 55.3333L117.333 54.6667z"/>
<path style="fill:#010101; stroke:none;" d="M50 56L50 57L67 56L50 56M120.333 61.6667L120.667 62.3333L120.333 61.6667z"/>
<path style="fill:#ffffff; stroke:none;" d="M216.333 61.6667L216.667 62.3333L216.333 61.6667M100 64L100 65L111 66L111 65L100 64z"/>
<path style="fill:#010101; stroke:none;" d="M66 65L67 66L66 65M204 67L204 70L205 70L204 67z"/>
<path style="fill:#ffffff; stroke:none;" d="M182 69L182 70L194 70L182 69M21 71L10 74L10 75L22 72L21 71z"/>
</svg>
